<svg xmlns="http://www.w3.org/2000/svg" viewBox="0 0 640 200" role="img" aria-labelledby="title desc">
  <title id="title">Algérie Télécom</title>
  <desc id="desc">Logo vectoriel simplifié avec emblème et texte Algérie Télécom</desc>
  <defs>
    <linearGradient id="g1" x1="0" y1="0" x2="1" y2="1">
      <stop offset="0%" stop-color="#2E3192"/>
      <stop offset="100%" stop-color="#1E216D"/>
    </linearGradient>
    <linearGradient id="g2" x1="0" y1="0" x2="1" y2="1">
      <stop offset="0%" stop-color="#F9B233"/>
      <stop offset="100%" stop-color="#E95F0E"/>
    </linearGradient>
  </defs>
  <rect width="640" height="200" rx="28" fill="#ffffff"/>
  <g transform="translate(36 34)">
    <circle cx="66" cy="66" r="66" fill="url(#g1)"/>
    <path d="M37 88c13-22 34-35 56-35 13 0 25 4 36 11-8-1-17 0-25 3-8 3-16 8-24 14-9 7-19 15-31 23l-12-16z" fill="url(#g2)"/>
    <path d="M48 47c15-10 32-15 49-15 14 0 28 3 41 10-10 1-20 4-29 9-9 5-18 12-27 21-12 11-23 22-32 33l-16-16c4-15 10-29 14-42z" fill="rgba(255,255,255,0.14)"/>
    <rect x="27" y="106" width="82" height="16" rx="8" fill="#ffffff" opacity="0.95"/>
  </g>
  <g transform="translate(190 52)">
    <text x="0" y="46" font-family="Arial, Helvetica, sans-serif" font-size="40" font-weight="700" fill="#1A202C">Algérie Télécom</text>
    <text x="0" y="86" font-family="Arial, Helvetica, sans-serif" font-size="19" font-weight="500" fill="#5B6472">Portail de gestion</text>
    <rect x="0" y="104" width="182" height="7" rx="3.5" fill="url(#g2)"/>
  </g>
</svg>
